
		<svg xmlns="http://www.w3.org/2000/svg" xmlns:xlink="http://www.w3.org/1999/xlink" version="1.1" width="3151.8987341772154" height="1594.9367088607594">
			
			<g transform="scale(7.594936708860759) translate(10, 10)">
				<defs id="SvgjsDefs4967"><linearGradient id="SvgjsLinearGradient4972"><stop id="SvgjsStop4973" stop-color="#e93e3a" offset="0"></stop><stop id="SvgjsStop4974" stop-color="#ed683c" offset="0.1"></stop><stop id="SvgjsStop4975" stop-color="#f3903f" offset="0.3"></stop><stop id="SvgjsStop4976" stop-color="#fdc70c" offset="0.7"></stop><stop id="SvgjsStop4977" stop-color="#fff33b" offset="1"></stop></linearGradient></defs><g id="SvgjsG4968" featureKey="root" fill="#000000"></g><g id="SvgjsG4969" featureKey="symbol1" fill="#fc4103" transform="matrix(0.7777777777777778,0,0,0.7777777777777778,159.11111111111111,-3.888888888888889)"><g xmlns="http://www.w3.org/2000/svg"><path d="M50,5C25.2,5,5,25.1,5,50s20.2,45,45,45s45-20.1,45-45S74.8,5,50,5z M48,74.1L48.5,51l-24-0.5l51-24.6L48,74.1z"></path></g><path xmlns="http://www.w3.org/2000/svg" fill="#fc4103" stroke="#fc4103" stroke-miterlimit="10" d="M27,50"></path></g><g id="SvgjsG4970" featureKey="text1" fill="#fc4103" transform="matrix(4.007357853207035,0,0,4.007357853207035,0.11740356967710017,59.96499402996847)"><path d="M-0.029297 9.990375 l2.6465 0 l0.78125 7.0313 l0.73242 0 q0.01953125 -0.087890625 0.64453125 -7.03125 l3.3496 0 q0.64453125 7.16796875 0.673828125 7.3046875 l1.1035 0 q0.732421875 -6.2890625 0.8203125 -7.3046875 l2.6465 0 l-1.1035 7.4219 l-0.20508 0 l0 1.377 l-2.002 0 l0 0.35156 l1.582 0 l0 2.0898 l-1.5137 0 l0 1.8359 l-0.41016 0 l0 0.80078 l-1.6992 0 l0 -4.5215 l-1.1035 0 l0 -1.6309 q0 -0.21484375 -0.439453125 -3.955078125 l-0.048828 0 l0 0.019531 l-0.36133 3.2422 l0.17578 0 l0 5.0098 l-1.6309 0 l0 1.9531 l-2.0898 0 l0 -1.9531 l-0.80078 0 l0 -4.6191 l-0.64453 0 z M1.1621 17.617175 l0.13672 0 l0.097656 0.30273 l0.019531 0 q0.068359375 -0.302734375 0.1171875 -0.302734375 l0.087891 0 l0 0.029297 q-0.13671875 0.478515625 -0.17578125 0.478515625 l-0.11719 0 q0 -0.068359375 -0.166015625 -0.5078125 z M1.1426 18.310575 l0.13672 0 l0 0.3418 q0 0.01953125 0.09765625 0.068359375 q0.087890625 -0.029296875 0.087890625 -0.068359375 l0 -0.3418 l0.13672 0 l0 0.25391 q0 0.1953125 -0.13671875 0.25390625 l-0.13672 0 q-0.185546875 0 -0.185546875 -0.25390625 l0 -0.25391 z M1.1426 18.994175 l0.3418 0 q0.0390625 0 0.09765625 0.09765625 l0 0.087891 l-0.048828 0.068359 q0.0390625 0.078125 0.068359375 0.25390625 l-0.13672 0 q0 -0.05859375 -0.01953125 -0.185546875 l-0.16602 0 l0 0.18555 l-0.087891 0 q-0.048828125 0 -0.048828125 -0.048828125 l0 -0.45898 z M1.2793 19.091775 l0 0.11719 l0.13672 0 q0.048828125 0 0.048828125 -0.048828125 q-0.01953125 -0.048828125 -0.01953125 -0.068359375 l-0.16602 0 z M1.2305 19.687475 l0.37109 0 l0 0.11719 l-0.22461 0 l0 0.068359 l0.15625 0 q0.048828125 0.009765625 0.048828125 0.048828125 l0 0.068359 l-0.20508 0 l0 0.20508 l-0.097656 0 q-0.048828125 0 -0.048828125 -0.048828125 l0 -0.45898 z M1.377 20.351575 q0.205078125 0.048828125 0.205078125 0.185546875 l-0.048828 0.019531 l-0.048828 0 l-0.087891 -0.087891 l-0.068359 0 q-0.09765625 0.0390625 -0.09765625 0.15625 q0 0.166015625 0.146484375 0.166015625 q0.087890625 -0.0390625 0.087890625 -0.068359375 l0 -0.019531 q-0.1171875 0 -0.1171875 -0.048828125 l0 -0.029297 q0.009765625 -0.0390625 0.048828125 -0.0390625 l0.18555 0 l0 0.29297 l-0.029297 0 q-0.01953125 0 -0.068359375 -0.01953125 l-0.13672 0.019531 l-0.019531 0 q-0.205078125 -0.029296875 -0.205078125 -0.205078125 l0 -0.087891 q0 -0.1953125 0.25390625 -0.234375 z M1.1426 21.064475 l0.13672 0 l0 0.18555 l0.18555 0 l0 -0.18555 l0.13672 0 l0 0.45898 q0 0.048828125 -0.048828125 0.048828125 l-0.087891 0 l0 -0.20508 l-0.18555 0 l0 0.20508 l-0.087891 0 q-0.048828125 0 -0.048828125 -0.048828125 l0 -0.45898 z M10.195 21.337875 l0.13672 0 q0.048828125 0.205078125 0.048828125 0.283203125 l0.019531 0 q0.068359375 -0.224609375 0.068359375 -0.283203125 l0.097656 0 q0.05859375 0 0.087890625 0.302734375 l0.029297 0 q0.0390625 -0.302734375 0.087890625 -0.302734375 l0.087891 0 q-0.107421875 0.5078125 -0.15625 0.5078125 l-0.097656 0 l-0.068359 -0.27344 l-0.019531 0 q-0.048828125 0.25390625 -0.048828125 0.2734375 l-0.13672 0 q-0.0390625 -0.1953125 -0.13671875 -0.5078125 z M10.215 22.031275 l0.11719 0 q0.048828125 0 0.09765625 0.13671875 q0.0390625 0 0.087890625 -0.13671875 l0.13672 0 l0 0.019531 l-0.13672 0.21484 q0 0.009765625 0.166015625 0.244140625 l0 0.029297 l-0.11719 0 q-0.05859375 0 -0.1171875 -0.166015625 q-0.1171875 0.166015625 -0.13671875 0.166015625 l-0.11719 0 q0 -0.01953125 0.166015625 -0.25390625 l0 -0.019531 l-0.14648 -0.21484 l0 -0.019531 z M13.574219375 10.019375 l2.7734 0 l0 5.5664 l2.793 0 l0 -5.5664 l2.3438 0 l0 7.9297 l-0.9668 0 l0 0.35156 l0.9668 0 l0 5.6836 l-2.3047 0 q-0.0390625 0 -0.0390625 -0.048828125 l0 -6.0254 l-2.793 0 l0 6.0254 q0 0.048828125 -0.048828125 0.048828125 l-2.3242 0 l0 -7.2754 l-0.40039 0 l0 -6.6895 z M21.484409375 17.949175 l1.2402 0 l0 0.35156 l-1.2402 0 l0 -0.35156 z M23.6230425 10.088375 l6.8457 0 l0 2.2754 q0 0.048828125 -0.048828125 0.048828125 l-4.0625 0 l0 3.0078 l3.6426 0 l0 0.029297 q0 0.126953125 -0.0390625 1.474609375 q-0.029296875 0 -0.029296875 0.01953125 l0.16602 0 l0 0.70313 l-3.1543 0 l0 2.8516 l-0.84961 0 l0 0.2832 l0.84961 0 l0 0.86914 l3.5742 0 l0 0.32227 l-0.2832 0 l0 1.709 l-4.2773 0 l0 0.30273 l-2.0313 0 l0 -4.9805 l-0.30273 0 l0 -1.7578 l-2.2266 0 l0 -0.30273 l2.2266 0 l0 -6.8555 z M23.6425825 16.943375 l0 0.30273 l1.1426 0 l0 -0.30273 l-1.1426 0 z M31.572265625 10.019375 l4.7852 0 q2.40234375 0 3.10546875 1.689453125 q0.302734375 0.869140625 0.302734375 1.9921875 l0 0.58594 q0 2.03125 -0.888671875 3.095703125 l-1.0156 0 l0 0.51758 l1.5527 0 l0 3.3398 l-0.91797 0 l0 0.51758 l1.3867 0 l0 1.9727 l-2.9102 0 l0 -3.1543 l-1.123 0 l0 -2.041 l-1.9531 0 l0 3.457 l0.41992 0 l0 1.9922 l-2.6953 0 q-0.048828125 0 -0.048828125 -0.048828125 l0 -5.6055 l1.2012 0 l0 -0.40039 l-1.2012 0 l0 -7.9102 z M34.316365625 12.295375 l0 3.9453 l0.66406 0 q1.494140625 0 1.728515625 -0.283203125 q0.244140625 -0.15625 0.380859375 -0.634765625 l1.0352 0 l0 -0.49805 l-0.9375 0 l0 0.048828 q-0.078125 0.44921875 -0.1171875 0.44921875 l-1.3379 0 l0 -0.49805 l1.4063 0 q0.048828125 0 0.048828125 -0.0390625 q0.01953125 -0.60546875 0.01953125 -0.68359375 q0 -1.30859375 -0.44921875 -1.6015625 q-0.3515625 -0.205078125 -1.2890625 -0.205078125 l-1.1523 0 z M41.162105 10.088375 l6.8457 0 l0 2.2754 q0 0.048828125 -0.048828125 0.048828125 l-4.0625 0 l0 3.0078 l3.6426 0 l0 0.029297 q0 0.126953125 -0.0390625 1.474609375 q-0.029296875 0 -0.029296875 0.01953125 l0.16602 0 l0 0.70313 l-3.1543 0 l0 2.8516 l-0.84961 0 l0 0.2832 l0.84961 0 l0 0.86914 l3.5742 0 l0 0.32227 l-0.2832 0 l0 1.709 l-4.2773 0 l0 0.30273 l-2.0313 0 l0 -4.9805 l-0.30273 0 l0 -1.7578 l-2.2266 0 l0 -0.30273 l2.2266 0 l0 -6.8555 z M41.181645 16.943375 l0 0.30273 l1.1426 0 l0 -0.30273 l-1.1426 0 z M49.638668125 9.990375 l3.9746 0 q2.646484375 0 3.369140625 1.337890625 q0.41015625 0.703125 0.41015625 1.9140625 l0 0.97656 q0 1.376953125 -1.201171875 2.2265625 q0.41015625 0.068359375 1.03515625 0.625 l0.30273 0 q0.595703125 0.60546875 0.771484375 1.171875 q0.048828125 0.1953125 0.048828125 0.21484375 l0.38086 0 l0 0.23438 l-1.2695 0 l0 -0.23438 l-2.6074 0 l0 -0.74219 l-2.5586 0 l0 4.0723 l1.6016 0 l0 -0.29297 l0.95703 0 l0 -2.8027 l2.6074 0 l0 2.4707 l0.29297 0 l0 1.5527 l-0.86914 0 l0 0.36133 l0.86914 0 l0 0.64453 l-3.3105 0 l0 0.26367 l-3.6133 0 l0 -0.26367 l-0.78125 0 l0 -2.1484 l1.0742 0 l0 -0.57617 l-1.0742 0 q-0.029296875 -1.640625 -0.029296875 -2.44140625 l0 -1.0352 l-0.9082 0 l0 -0.26367 l0.9082 0 l0 -0.54688 l-0.42969 0 l0 -6.6699 q0.009765625 -0.048828125 0.048828125 -0.048828125 z M52.343728125 12.353375 l0 3.4668 l0.5957 0 q1.0546875 0 1.38671875 -0.3515625 q0.33203125 -0.283203125 0.33203125 -1.533203125 l0 -0.048828 q0 -1.07421875 -0.33203125 -1.2890625 q-0.224609375 -0.244140625 -1.533203125 -0.244140625 l-0.44922 0 z M50.048828125 17.255875 l0 0.26367 l1.2891 0 l0 -0.26367 l-1.2891 0 z M49.521488125 17.568375 l0.47852 0 l0 0.097656 q0 0.048828125 -0.048828125 0.048828125 l-0.29297 0 l0 0.097656 l0.26367 0 q0.048828125 0.009765625 0.048828125 0.048828125 l0 0.048828 q0 0.048828125 -0.048828125 0.048828125 l-0.26367 0 l0 0.11719 l0.3418 0 l0 0.097656 q0 0.0390625 -0.048828125 0.0390625 l-0.42969 0 l0 -0.64453 z M53.535128125 18.457075 l1.3184 0 l0 0.23438 l-1.3184 0 l0 -0.23438 z M57.841828125 18.740275 l0.078125 0 q0.048828125 0.009765625 0.048828125 0.048828125 l0 0.41016 q-0.0390625 0.21484375 -0.21484375 0.21484375 q-0.224609375 -0.0390625 -0.224609375 -0.21484375 l0 -0.029297 q0.009765625 -0.0390625 0.048828125 -0.0390625 l0.048828 0 q0.048828125 0 0.078125 0.13671875 l0.087891 0 l0 -0.47852 q0.009765625 -0.048828125 0.048828125 -0.048828125 z M57.626928125 19.580075 l0.19531 0 q0.33203125 0 0.33203125 0.361328125 q0 0.244140625 -0.3125 0.283203125 l-0.26367 0 l0 -0.5957 q0.009765625 -0.048828125 0.048828125 -0.048828125 z M57.753928125 19.726575 l0 0.36133 l0.087891 0 q0.146484375 0 0.146484375 -0.146484375 l0 -0.048828 q0 -0.166015625 -0.166015625 -0.166015625 l-0.068359 0 z M57.626928125 20.419875 l0.36133 0 q0.048828125 0.009765625 0.048828125 0.048828125 l0 0.097656 l-0.2832 0 l0 0.11719 l0.23438 0 l0 0.11719 l-0.23438 0 l0 0.21484 q0 0.048828125 -0.048828125 0.048828125 l-0.12695 0 l0 -0.5957 q0.009765625 -0.048828125 0.048828125 -0.048828125 z M54.277328125 20.800775 l0.50781 0 l0 0.11719 l-0.3125 0.39063 l0.33203 0 l0 0.087891 q0 0.048828125 -0.048828125 0.048828125 l-0.44922 0 q-0.048828125 0 -0.048828125 -0.048828125 l0 -0.068359 l0.3125 -0.38086 l-0.24414 0 q-0.048828125 0 -0.048828125 -0.048828125 l0 -0.097656 z M52.363328125 21.210975 l0.029297 0 q0.44921875 0.13671875 0.44921875 0.185546875 l0 0.048828 q-0.048828125 0.068359375 -0.44921875 0.21484375 l-0.029297 -0.048828 l0 -0.019531 q0 -0.068359375 0.29296875 -0.146484375 q0 -0.048828125 -0.29296875 -0.13671875 l0 -0.097656 z M59.3164025 9.990375 l3.9746 0 q2.646484375 0 3.369140625 1.337890625 q0.41015625 0.703125 0.41015625 1.9140625 l0 0.97656 q0 1.376953125 -1.201171875 2.2265625 q0.41015625 0.068359375 1.03515625 0.625 l0.30273 0 q0.595703125 0.60546875 0.771484375 1.171875 q0.048828125 0.1953125 0.048828125 0.21484375 l0.38086 0 l0 0.23438 l-1.2695 0 l0 -0.23438 l-2.6074 0 l0 -0.74219 l-2.5586 0 l0 4.0723 l1.6016 0 l0 -0.29297 l0.95703 0 l0 -2.8027 l2.6074 0 l0 2.4707 l0.29297 0 l0 1.5527 l-0.86914 0 l0 0.36133 l0.86914 0 l0 0.64453 l-3.3105 0 l0 0.26367 l-3.6133 0 l0 -0.26367 l-0.78125 0 l0 -2.1484 l1.0742 0 l0 -0.57617 l-1.0742 0 q-0.029296875 -1.640625 -0.029296875 -2.44140625 l0 -1.0352 l-0.9082 0 l0 -0.26367 l0.9082 0 l0 -0.54688 l-0.42969 0 l0 -6.6699 q0.009765625 -0.048828125 0.048828125 -0.048828125 z M62.0214625 12.353375 l0 3.4668 l0.5957 0 q1.0546875 0 1.38671875 -0.3515625 q0.33203125 -0.283203125 0.33203125 -1.533203125 l0 -0.048828 q0 -1.07421875 -0.33203125 -1.2890625 q-0.224609375 -0.244140625 -1.533203125 -0.244140625 l-0.44922 0 z M59.7265625 17.255875 l0 0.26367 l1.2891 0 l0 -0.26367 l-1.2891 0 z M59.1992225 17.568375 l0.47852 0 l0 0.097656 q0 0.048828125 -0.048828125 0.048828125 l-0.29297 0 l0 0.097656 l0.26367 0 q0.048828125 0.009765625 0.048828125 0.048828125 l0 0.048828 q0 0.048828125 -0.048828125 0.048828125 l-0.26367 0 l0 0.11719 l0.3418 0 l0 0.097656 q0 0.0390625 -0.048828125 0.0390625 l-0.42969 0 l0 -0.64453 z M63.2128625 18.457075 l1.3184 0 l0 0.23438 l-1.3184 0 l0 -0.23438 z M67.5195625 18.740275 l0.078125 0 q0.048828125 0.009765625 0.048828125 0.048828125 l0 0.41016 q-0.0390625 0.21484375 -0.21484375 0.21484375 q-0.224609375 -0.0390625 -0.224609375 -0.21484375 l0 -0.029297 q0.009765625 -0.0390625 0.048828125 -0.0390625 l0.048828 0 q0.048828125 0 0.078125 0.13671875 l0.087891 0 l0 -0.47852 q0.009765625 -0.048828125 0.048828125 -0.048828125 z M67.3046625 19.580075 l0.19531 0 q0.33203125 0 0.33203125 0.361328125 q0 0.244140625 -0.3125 0.283203125 l-0.26367 0 l0 -0.5957 q0.009765625 -0.048828125 0.048828125 -0.048828125 z M67.4316625 19.726575 l0 0.36133 l0.087891 0 q0.146484375 0 0.146484375 -0.146484375 l0 -0.048828 q0 -0.166015625 -0.166015625 -0.166015625 l-0.068359 0 z M67.3046625 20.419875 l0.36133 0 q0.048828125 0.009765625 0.048828125 0.048828125 l0 0.097656 l-0.2832 0 l0 0.11719 l0.23438 0 l0 0.11719 l-0.23438 0 l0 0.21484 q0 0.048828125 -0.048828125 0.048828125 l-0.12695 0 l0 -0.5957 q0.009765625 -0.048828125 0.048828125 -0.048828125 z M63.9550625 20.800775 l0.50781 0 l0 0.11719 l-0.3125 0.39063 l0.33203 0 l0 0.087891 q0 0.048828125 -0.048828125 0.048828125 l-0.44922 0 q-0.048828125 0 -0.048828125 -0.048828125 l0 -0.068359 l0.3125 -0.38086 l-0.24414 0 q-0.048828125 0 -0.048828125 -0.048828125 l0 -0.097656 z M62.0410625 21.210975 l0.029297 0 q0.44921875 0.13671875 0.44921875 0.185546875 l0 0.048828 q-0.048828125 0.068359375 -0.44921875 0.21484375 l-0.029297 -0.048828 l0 -0.019531 q0 -0.068359375 0.29296875 -0.146484375 q0 -0.048828125 -0.29296875 -0.13671875 l0 -0.097656 z M73.837896875 10.009375 q3.0078125 0 3.955078125 2.099609375 q0.537109375 1.025390625 0.537109375 3.955078125 l0 0.068359 l-1.0352 0 l0 0.46875 l1.0352 0 l0 5.0488 l-0.68359 0 l0 1.8164 l-1.3574 0 l0 0.51758 l-4.7461 0 l0 -0.51758 l-0.57617 0 l0 -1.8164 l-1.2207 0 l0 -1.4258 l0.72266 0 l0 -0.75195 l-0.72266 0 l0 0.75195 l-1.7285 0 l0 -0.75195 l1.3086 0 q-0.01953125 -1.708984375 -0.01953125 -2.6171875 l0 -1.1914 q0 -3.3203125 1.123046875 -4.443359375 q1.025390625 -1.2109375 3.408203125 -1.2109375 z M72.128896875 14.824175 l0.029297 0 l-0.029297 0.039063 l0 1.2695 l-1.0449 0 l0 0.46875 l1.0449 0 q-0.01953125 3.017578125 -0.01953125 4.55078125 l0 0.49805 l2.334 0 l0 -0.77148 l1.0742 0 l0 -0.029297 q0 -1.42578125 -0.01953125 -3.974609375 q0 -0.107421875 0.01953125 -0.537109375 q0 -2.75390625 -0.322265625 -3.388671875 q-0.33203125 -0.60546875 -1.220703125 -0.60546875 l-0.3418 0 q-1.064453125 0 -1.318359375 0.9375 q-0.1171875 0.458984375 -0.185546875 1.54296875 z M78.330096875 16.132775 l1.6797 0 l0 0.46875 l-1.6797 0 l0 -0.46875 z M80.05859 10.019375 l2.7441 0 q0 2.021484375 0.703125 3.427734375 q0.751953125 1.8359375 1.03515625 2.91015625 l0 0.029297 l0.019531 0 q0.3515625 -1.298828125 1.455078125 -3.994140625 q0.283203125 -1.279296875 0.283203125 -2.373046875 l2.5781 0 q-0.234375 2.109375 -0.5859375 3.10546875 l-1.5527 3.5156 l-0.9375 0 l0 2.4121 l-1.4258 0 l0 0.46875 l1.4258 0 l0 4.4629 l-2.6758 0 q-0.0390625 0 -0.0390625 -0.048828125 l0 -2.1777 l-0.42969 0 l0 -3.877 l0.80078 0 l0 -0.35156 l-0.86914 0 q-0.107421875 -0.126953125 -1.62109375 -3.6328125 q-0.634765625 -1.40625 -0.634765625 -1.689453125 l1.1523 0 l0 -0.49805 l-1.2402 0 q-0.185546875 -1.54296875 -0.185546875 -1.689453125 z M78.38867 11.709375 l1.8555 0 l0.068359 0.49805 l-1.9238 0 l0 -0.49805 z M85.8008 19.052775 l1.1523 0 l0 0.46875 l-1.1523 0 l0 -0.46875 z M94.121134375 10.029375 q2.32421875 0 3.115234375 1.494140625 q0.546875 1.1328125 0.546875 2.216796875 l-0.019531 0 q-1.591796875 0.13671875 -2.177734375 0.13671875 q0 -0.771484375 -0.478515625 -1.298828125 q-0.44921875 -0.25390625 -0.830078125 -0.25390625 l-0.39063 0 q-0.99609375 0 -1.2109375 0.771484375 q-0.048828125 0.224609375 -0.048828125 0.3515625 l0 0.20508 q0 1.09375 1.15234375 1.58203125 q0.09765625 0.087890625 1.6015625 0.732421875 q0.80078125 0.37109375 1.484375 0.91796875 l0 0.019531 l-2.4512 0 l0 0.27344 l3.2324 0 l0 0.39063 l0.41016 0 l0 4.2383 l-0.80078 0 l0 2.1777 l-6.2109 0 l0 -2.1777 l-1.4648 0 l0 -1.4648 l0.83008 0 l0 -0.50781 l-0.83008 0 l0 -0.3418 l2.8418 0 l0 2.3145 l2.9102 0 l0 -3.4863 l-2.1777 0 l0 -1.1426 l-2.7051 0 l0 -0.27344 l1.3086 0 l0 -0.019531 q-1.71875 -1.142578125 -1.71875 -3.232421875 l0 -0.18555 q0 -1.748046875 1.07421875 -2.65625 q0.9765625 -0.78125 3.0078125 -0.78125 z M97.646534375 16.904275 l0.98633 0 l0 0.27344 l-0.98633 0 l0 -0.27344 z M88.642574375 19.833975 l0.9375 0 l0 0.50781 l-0.9375 0 l0 -0.50781 z"></path></g><g id="SvgjsG4971" featureKey="text3" fill="url(#SvgjsLinearGradient4972)" transform="matrix(1.369281351829723,0,0,1.369281351829723,77.52117608126072,162.7569236764051)"><path d="M1.36 20 c-0.18666 0 -0.28 -0.09334 -0.28 -0.28 l0 -13.4 c0 -0.18666 0.09334 -0.28 0.28 -0.28 l6.36 0 c0.09334 0 0.18 0.01 0.26 0.03 s0.16666 0.07666 0.26 0.17 l1.12 1.12 c0.10666 0.12 0.17 0.22334 0.19 0.31 s0.03 0.15666 0.03 0.21 l0 5.14 c0 0.2 -0.07334 0.37334 -0.22 0.52 l-1.12 1.12 c-0.06666 0.06666 -0.14 0.12 -0.22 0.16 s-0.18 0.06 -0.3 0.06 l-4.24 0 l0 4.84 c0 0.18666 -0.09334 0.28 -0.28 0.28 l-1.84 0 z M7.12 12.08 c0.02666 -0.02666 0.04 -0.05334 0.04 -0.08 l0 -3.08 c0 -0.04 -0.01334 -0.07334 -0.04 -0.1 l-0.36 -0.34 c-0.02666 -0.02666 -0.06 -0.04 -0.1 -0.04 l-3.18 0 l0 4.02 l3.18 0 c0.05334 0 0.09334 -0.01334 0.12 -0.04 z M11.980449519625402 20 c-0.18666 0 -0.28 -0.09334 -0.28 -0.28 l0 -13.44 c0 -0.06666 0.03 -0.12332 0.09 -0.16998 s0.12334 -0.07 0.19 -0.07 l1.84 0 c0.06666 0 0.13 0.02334 0.19 0.07 s0.09 0.10332 0.09 0.16998 l0 11.32 l5.9 0 c0.18666 0 0.28 0.09334 0.28 0.28 l0 1.84 c0 0.18666 -0.09334 0.28 -0.28 0.28 l-8.02 0 z M29.900899039250806 20 c-0.08 0 -0.15664 -0.03002 -0.22998 -0.09002 s-0.12334 -0.13 -0.15 -0.21 l-0.78 -2.68 l-4.46 0 l-0.78 2.68 c-0.02666 0.08 -0.07666 0.15 -0.15 0.21 s-0.15 0.09 -0.23 0.09 l-1.74 0 c-0.08 0 -0.15666 -0.03 -0.23 -0.09 s-0.09668 -0.13 -0.07002 -0.21 l3.96 -13.38 c0.02666 -0.06666 0.06 -0.13332 0.1 -0.19998 s0.1 -0.1 0.18 -0.1 l2.36 0 c0.13334 0 0.23334 0.09334 0.3 0.28 l3.94 13.4 c0.02666 0.08 0.0066602 0.15 -0.06 0.21 s-0.14 0.09 -0.22 0.09 l-1.74 0 z M26.500899039250804 9.48 l-1.5 5.1 l3.02 0 z M40.841348558876206 19.8 c-0.06666 0.06666 -0.13336 0.11668 -0.20002 0.15002 s-0.17332 0.05 -0.31998 0.05 l-5.22 0 c-0.08 0 -0.15334 -0.01 -0.22 -0.03 s-0.14666 -0.07666 -0.24 -0.17 l-1.14 -1.14 c-0.08 -0.08 -0.13334 -0.15666 -0.16 -0.23 s-0.04 -0.15 -0.04 -0.23 l0 -10.32 c0 -0.21334 0.06666 -0.38668 0.2 -0.52002 l1.14 -1.12 c0.08 -0.08 0.16334 -0.13334 0.25 -0.16 s0.17666 -0.04 0.27 -0.04 l5.16 0 c0.10666 0 0.2 0.01334 0.28 0.04 s0.16 0.08 0.24 0.16 l1.12 1.12 c0.08 0.08 0.13666 0.15 0.17 0.21 s0.05 0.16334 0.05 0.31 l0 2.14 c0 0.18666 -0.09334 0.28 -0.28 0.28 l-1.84 0 c-0.18666 0 -0.28 -0.09334 -0.28 -0.28 l0 -1.06 c0 -0.05334 -0.02 -0.1 -0.06 -0.14 l-0.34 -0.32 c-0.06666 -0.04 -0.10666 -0.06 -0.12 -0.06 l-3 0 c-0.06666 0 -0.12 0.02 -0.16 0.06 l-0.34 0.32 c-0.04 0.04 -0.06 0.08666 -0.06 0.14 l0 8.18 c0 0.08 0.02 0.14 0.06 0.18 l0.28 0.28 l3.4 0 l0.28 -0.28 c0.04 -0.04 0.06 -0.08666 0.06 -0.14 l0 -1.12 c0 -0.08 0.02666 -0.15 0.08 -0.21 s0.12 -0.09 0.2 -0.09 l1.84 0 c0.08 0 0.14666 0.03 0.2 0.09 s0.08 0.13 0.08 0.21 l0 2.12 c0 0.09334 -0.01334 0.17334 -0.04 0.24 s-0.08666 0.14666 -0.18 0.24 z M44.50179807850161 20 c-0.18666 0 -0.28 -0.09334 -0.28 -0.28 l0 -13.4 c0 -0.18666 0.09334 -0.28 0.28 -0.28 l7.26 0 c0.18666 0 0.28 0.09334 0.28 0.28 l0 1.84 c0 0.06666 -0.02666 0.13 -0.08 0.19 s-0.12 0.09 -0.2 0.09 l-5.14 0 l0 3.38 l4.06 0 c0.06666 0 0.13 0.02666 0.19 0.08 s0.09 0.12 0.09 0.2 l0 1.84 c0 0.08 -0.03 0.14666 -0.09 0.2 s-0.12334 0.08 -0.19 0.08 l-4.06 0 l0 3.38 l5.14 0 c0.18666 0 0.28 0.09334 0.28 0.28 l0 1.84 c0 0.18666 -0.09334 0.28 -0.28 0.28 l-7.26 0 z M61.26224759812702 19.8 c-0.08 0.08 -0.16666 0.13338 -0.26 0.16004 s-0.18 0.04 -0.26 0.04 l-5.16 0 c-0.14666 0 -0.25 -0.01666 -0.31 -0.05 s-0.13 -0.09 -0.21 -0.17 l-1.14 -1.12 c-0.09334 -0.09334 -0.15 -0.17668 -0.17 -0.25002 s-0.03 -0.14334 -0.03 -0.21 l0 -2.04 c0 -0.06666 0.02666 -0.13 0.08 -0.19 s0.12 -0.09 0.2 -0.09 l1.84 0 c0.08 0 0.14666 0.03 0.2 0.09 s0.08 0.12334 0.08 0.19 l0 1.44 l3.58 0 c0.02666 0 0.06 -0.02 0.1 -0.06 l0.34 -0.32 c0.04 -0.02666 0.06 -0.07332 0.06 -0.13998 l0 -2.34 c0 -0.05334 -0.02 -0.1 -0.06 -0.14 l-0.32 -0.32 c-0.04 -0.04 -0.08666 -0.06 -0.14 -0.06 l-4.16 0 c-0.04 0 -0.10334 -0.01334 -0.19 -0.04 s-0.17666 -0.08666 -0.27 -0.18 l-1.14 -1.12 c-0.08 -0.08 -0.13334 -0.16334 -0.16 -0.25 s-0.04 -0.17 -0.04 -0.25 l0 -4.5 c0 -0.06666 0.01334 -0.14666 0.04 -0.24 s0.08666 -0.18668 0.18 -0.28002 l1.12 -1.12 c0.06666 -0.06666 0.13 -0.11666 0.19 -0.15 s0.17 -0.05 0.33 -0.05 l5.16 0 c0.08 0 0.17 0.01666 0.27 0.05 s0.18334 0.08334 0.25 0.15 l1.12 1.12 c0.10666 0.12 0.17 0.21666 0.19 0.29 s0.03 0.15 0.03 0.23 l0 2.1 c0 0.18666 -0.09334 0.28 -0.28 0.28 l-1.84 0 c-0.18666 0 -0.28 -0.09334 -0.28 -0.28 l0 -1.54 l-3.52 0 c-0.05334 0 -0.10668 0.02 -0.16002 0.06 l-0.34 0.32 c-0.04 0.02666 -0.06 0.07332 -0.06 0.13998 l0 2.32 c0 0.05334 0.02 0.1 0.06 0.14 l0.34 0.34 c0.04 0.04 0.09334 0.06 0.16 0.06 l4.06 0 c0.21334 0 0.38668 0.06666 0.52002 0.2 l1.12 1.12 c0.14666 0.16 0.22 0.33334 0.22 0.52 l0 4.48 c0 0.2 -0.07334 0.37334 -0.22 0.52 z  M70.14314663737782 20 c-0.18666 0 -0.28 -0.09334 -0.28 -0.28 l0 -13.4 c0 -0.18666 0.09334 -0.28 0.28 -0.28 l7.26 0 c0.18666 0 0.28 0.09334 0.28 0.28 l0 1.84 c0 0.05334 -0.02 0.11334 -0.06 0.18 s-0.09334 0.1 -0.16 0.1 l-5.2 0 l0 3.38 l4.08 0 c0.18666 0 0.28 0.09334 0.28 0.28 l0 1.84 c0 0.18666 -0.09334 0.28 -0.28 0.28 l-4.08 0 l0 5.5 c0 0.18666 -0.09334 0.28 -0.28 0.28 l-1.84 0 z M86.96359615700322 19.8 c-0.13334 0.13334 -0.36 0.20002 -0.68 0.20002 l-5.06 0 c-0.04 0 -0.10334 -0.01 -0.19 -0.03 s-0.17666 -0.07666 -0.27 -0.17 l-1.14 -1.14 c-0.09334 -0.09334 -0.15 -0.18334 -0.17 -0.27 s-0.03 -0.15 -0.03 -0.19 l0 -10.36 c0 -0.05334 0.01 -0.12334 0.03 -0.21 s0.07666 -0.17666 0.17 -0.27 l1.14 -1.12 c0.08 -0.08 0.15666 -0.13334 0.23 -0.16 s0.17 -0.04 0.29 -0.04 l5.16 0 c0.08 0 0.16666 0.01334 0.26 0.04 s0.18 0.08 0.26 0.16 l1.12 1.12 c0.06666 0.06666 0.12 0.14332 0.16 0.22998 s0.06 0.18332 0.06 0.28998 l0 10.26 c0 0.13334 -0.02 0.23668 -0.06 0.31002 s-0.09334 0.14334 -0.16 0.21 z M85.84359615700323 17.32 c0.04 -0.04 0.05998 -0.08668 0.05998 -0.14002 l0 -8.22 c0 -0.01334 -0.0033398 -0.03334 -0.01 -0.06 s-0.02332 -0.05332 -0.04998 -0.07998 l-0.34 -0.32 c-0.04 -0.04 -0.08 -0.06 -0.12 -0.06 l-3.02 0 c-0.05334 0 -0.1 0.02 -0.14 0.06 l-0.34 0.32 c-0.04 0.04 -0.06 0.08666 -0.06 0.14 l0 8.22 c0 0.05334 0.02 0.1 0.06 0.14 l0.28 0.28 l3.4 0 z M97.58404567662863 20 c-0.08 0 -0.15334 -0.03 -0.22 -0.09 s-0.11332 -0.12334 -0.13998 -0.19 l-1.98 -4.86 l-2.24 0 l0 4.86 c0 0.18666 -0.09334 0.28 -0.28 0.28 l-1.84 0 c-0.18666 0 -0.28 -0.09334 -0.28 -0.28 l0 -13.4 c0 -0.18666 0.09334 -0.28 0.28 -0.28 l6.36 0 c0.05334 0 0.10668 0.0066602 0.16002 0.02 s0.11 0.03 0.17 0.05 s0.12334 0.06334 0.19 0.13 l1.12 1.12 c0.10666 0.10666 0.17332 0.22666 0.19998 0.36 c0.01334 0.05334 0.02 0.10668 0.02 0.16002 l0 5.08 c0 0.24 -0.07334 0.43334 -0.22 0.58 l-1.18 1.18 l2.02 4.98 c0.02666 0.06666 0.02332 0.13332 -0.01002 0.19998 s-0.11 0.1 -0.23 0.1 l-1.9 0 z M96.62404567662863 12.08 c0.04 -0.04 0.05998 -0.08666 0.05998 -0.14 l0 -3.02 c0 -0.04 -0.01334 -0.07334 -0.04 -0.1 l-0.34 -0.32 c-0.06666 -0.04 -0.11332 -0.06 -0.13998 -0.06 l-3.16 0 l0 4.02 l3.16 0 c0.05334 0 0.1 -0.02 0.14 -0.06 z  M113.50494471587943 19.8 c-0.13334 0.13334 -0.30668 0.20004 -0.52002 0.20004 l-6.36 0 c-0.08 0 -0.14666 -0.03 -0.2 -0.09 s-0.08 -0.13 -0.08 -0.21 l0 -13.38 c0 -0.18666 0.09334 -0.28 0.28 -0.28 l6.36 0 c0.05334 0 0.12668 0.01 0.22002 0.03 s0.19334 0.08334 0.3 0.19 l1.12 1.12 c0.14666 0.14666 0.22 0.32 0.22 0.52 l0 3.62 c0 0.10666 -0.01 0.19332 -0.03 0.25998 s-0.08334 0.15332 -0.19 0.25998 l-0.78 0.78 l0.78 0.8 c0.10666 0.12 0.17 0.22 0.19 0.3 s0.03 0.15334 0.03 0.22 l0 4 c0 0.12 -0.02 0.22 -0.06 0.3 s-0.09334 0.15334 -0.16 0.22 z M112.36494471587943 17.22 c0.05334 -0.05334 0.08 -0.10666 0.08 -0.16 l0 -2.5 l-0.06 -0.1 l-0.34 -0.34 c-0.04 -0.04 -0.09334 -0.06 -0.16 -0.06 l-3.14 0 l0 3.52 l3.14 0 c0.04 0 0.09334 -0.02 0.16 -0.06 z M112.38494471587944 11.28 c0.04 -0.04 0.06 -0.08666 0.06 -0.14 l0 -2.28 c0 -0.05334 -0.02 -0.1 -0.06 -0.14 l-0.28 -0.28 l-3.36 0 l0 3.22 l3.18 0 c0.04 0 0.08 -0.02 0.12 -0.06 z M124.24539423550483 19.8 c-0.13334 0.13334 -0.30668 0.20004 -0.52002 0.20004 l-6.36 0 c-0.08 0 -0.14666 -0.03 -0.2 -0.09 s-0.08 -0.13 -0.08 -0.21 l0 -13.38 c0 -0.18666 0.09334 -0.28 0.28 -0.28 l6.36 0 c0.05334 0 0.12668 0.01 0.22002 0.03 s0.19334 0.08334 0.3 0.19 l1.12 1.12 c0.14666 0.14666 0.22 0.32 0.22 0.52 l0 3.62 c0 0.10666 -0.01 0.19332 -0.03 0.25998 s-0.08334 0.15332 -0.19 0.25998 l-0.78 0.78 l0.78 0.8 c0.10666 0.12 0.17 0.22 0.19 0.3 s0.03 0.15334 0.03 0.22 l0 4 c0 0.12 -0.02 0.22 -0.06 0.3 s-0.09334 0.15334 -0.16 0.22 z M123.10539423550483 17.22 c0.05334 -0.05334 0.08 -0.10666 0.08 -0.16 l0 -2.5 l-0.06 -0.1 l-0.34 -0.34 c-0.04 -0.04 -0.09334 -0.06 -0.16 -0.06 l-3.14 0 l0 3.52 l3.14 0 c0.04 0 0.09334 -0.02 0.16 -0.06 z M123.12539423550484 11.28 c0.04 -0.04 0.06 -0.08666 0.06 -0.14 l0 -2.28 c0 -0.05334 -0.02 -0.1 -0.06 -0.14 l-0.28 -0.28 l-3.36 0 l0 3.22 l3.18 0 c0.04 0 0.08 -0.02 0.12 -0.06 z M135.28584375513023 19.8 c-0.13334 0.13334 -0.36 0.20002 -0.68 0.20002 l-5.06 0 c-0.04 0 -0.10334 -0.01 -0.19 -0.03 s-0.17666 -0.07666 -0.27 -0.17 l-1.14 -1.14 c-0.09334 -0.09334 -0.15 -0.18334 -0.17 -0.27 s-0.03 -0.15 -0.03 -0.19 l0 -10.36 c0 -0.05334 0.01 -0.12334 0.03 -0.21 s0.07666 -0.17666 0.17 -0.27 l1.14 -1.12 c0.08 -0.08 0.15666 -0.13334 0.23 -0.16 s0.17 -0.04 0.29 -0.04 l5.16 0 c0.08 0 0.16666 0.01334 0.26 0.04 s0.18 0.08 0.26 0.16 l1.12 1.12 c0.06666 0.06666 0.12 0.14332 0.16 0.22998 s0.06 0.18332 0.06 0.28998 l0 10.26 c0 0.13334 -0.02 0.23668 -0.06 0.31002 s-0.09334 0.14334 -0.16 0.21 z M134.16584375513023 17.32 c0.04 -0.04 0.05998 -0.08668 0.05998 -0.14002 l0 -8.22 c0 -0.01334 -0.0033398 -0.03334 -0.01 -0.06 s-0.02332 -0.05332 -0.04998 -0.07998 l-0.34 -0.32 c-0.04 -0.04 -0.08 -0.06 -0.12 -0.06 l-3.02 0 c-0.05334 0 -0.1 0.02 -0.14 0.06 l-0.34 0.32 c-0.04 0.04 -0.06 0.08666 -0.06 0.14 l0 8.22 c0 0.05334 0.02 0.1 0.06 0.14 l0.28 0.28 l3.4 0 z M142.16629327475565 20 c-0.14666 0 -0.22 -0.09334 -0.22 -0.28 l0 -6.16 l-3.98 -7.2 c-0.05334 -0.08 -0.04 -0.15334 0.04 -0.22 s0.16 -0.1 0.24 -0.1 l2.02 0 c0.08 0 0.15334 0.03 0.22 0.09 s0.12 0.12334 0.16 0.19 l2.5 5.02 l2.5 -5.02 c0.04 -0.06666 0.09334 -0.13 0.16 -0.19 s0.14 -0.09 0.22 -0.09 l2.02 0 c0.08 0 0.16 0.03334 0.24 0.1 s0.09334 0.14 0.04 0.22 l-3.98 7.2 l0 6.16 c0 0.18666 -0.08 0.28 -0.24 0.28 l-1.94 0 z M150.02674279438108 20 c-0.18666 0 -0.28 -0.09334 -0.28 -0.28 l0 -13.4 c0 -0.18666 0.09334 -0.28 0.28 -0.28 l1.84 0 c0.18666 0 0.28 0.09334 0.28 0.28 l0 13.4 c0 0.18666 -0.09334 0.28 -0.28 0.28 l-1.84 0 z M160.80719231400647 20 c-0.08 0 -0.15666 -0.03 -0.23 -0.09 s-0.12334 -0.12334 -0.15 -0.19 l-3.5 -8.64 l0 8.64 c0 0.18666 -0.09334 0.28 -0.28 0.28 l-1.84 0 c-0.18666 0 -0.28 -0.09334 -0.28 -0.28 l0 -13.4 c0 -0.18666 0.09334 -0.28 0.28 -0.28 l2.44 0 c0.13334 0 0.23334 0.09334 0.3 0.28 l3.1 8.02 l0.12 0.56 l0 -8.58 c0 -0.18666 0.09334 -0.28 0.28 -0.28 l1.84 0 c0.18666 0 0.28 0.09334 0.28 0.28 l0 13.4 c0 0.18666 -0.09334 0.28 -0.28 0.28 l-2.08 0 z M172.98764183363187 19.8 c-0.08 0.09334 -0.14662 0.15 -0.19996 0.17 s-0.11334 0.03 -0.18 0.03 l-5.36 0 c-0.04 0 -0.10334 -0.01 -0.19 -0.03 s-0.17666 -0.07666 -0.27 -0.17 l-1.14 -1.14 c-0.09334 -0.09334 -0.15 -0.18334 -0.17 -0.27 s-0.03 -0.15 -0.03 -0.19 l0 -10.32 c0 -0.21334 0.06666 -0.38668 0.2 -0.52002 l1.14 -1.12 c0.08 -0.08 0.15334 -0.13334 0.22 -0.16 s0.16666 -0.04 0.3 -0.04 l5.16 0 c0.06666 0 0.14332 0.0066602 0.22998 0.02 s0.18332 0.07334 0.28998 0.18 l1.12 1.12 c0.08 0.08 0.13666 0.15334 0.17 0.22 s0.05 0.16666 0.05 0.3 l0 2.14 c0 0.18666 -0.09334 0.28 -0.28 0.28 l-1.84 0 c-0.18666 0 -0.28 -0.09334 -0.28 -0.28 l0 -1.06 c0 -0.06666 -0.02 -0.11332 -0.06 -0.13998 l-0.34 -0.32 c-0.04 -0.04 -0.09334 -0.06 -0.16 -0.06 l-2.96 0 c-0.06666 0 -0.12 0.02 -0.16 0.06 l-0.34 0.32 c-0.04 0.04 -0.06 0.08666 -0.06 0.14 l0 8.22 c0 0.05334 0.02 0.1 0.06 0.14 l0.28 0.28 l3.4 0 l0.28 -0.28 c0.04 -0.04 0.06 -0.08666 0.06 -0.14 l0 -2.3 l-1.86 0 c-0.18666 0 -0.28 -0.09334 -0.28 -0.28 l0 -1.84 c0 -0.18666 0.09334 -0.28 0.28 -0.28 l3.98 0 c0.18666 0 0.28 0.09334 0.28 0.28 l0 5.54 c0 0.05334 -0.02 0.11 -0.06 0.17 s-0.09334 0.12334 -0.16 0.19 z"></path></g>
			</g>
		</svg>
	